{"title":"Filth 2013 R5 DVDRIP x264 AC3 TiTAN","uid":9504731,"size":1500780808,"categoryP":"video","categoryS":"movies","magnet":"?xt=urn:btih:40f2659f5d4ab7fb5ad9f927aa5a614d7d603a25&amp;dn=Filth+2013+R5+DVDRIP+x264+AC3+TiTAN&amp;tr=udp%3A%2F%2Ftracker.openbittorrent.com%3A80&amp;tr=udp%3A%2F%2Fopen.demonii.com%3A1337&amp;tr=udp%3A%2F%2Ftracker.coppersurfer.tk%3A6969&amp;tr=udp%3A%2F%2Fexodus.desync.com%3A6969","seeders":1,"leechers":0,"uploader":"xxxlavalxxx","files":-1,"time":1390296150,"description":" &lt;a href=&quot;\nhttp://www.imdb.com/title/tt1450321/&quot; rel=&quot;nofollow&quot; target=&quot;_NEW&quot;&gt;\nhttp://www.imdb.com/title/tt1450321/&lt;/a&gt;\n\n\nA bipolar, bigoted junkie cop manipulates and hallucinates his way through the festive season in a bid to secure promotion and win back his wife and daughter.\n\nDirector: Jon S. Baird\nWriters: Jon S. Baird (screenplay), Irvine Welsh (novel)\nStars: James McAvoy, Imogen Poots, Joanne Froggatt\nGenres: Comedy | Crime | Drama\nCountry: UK\nLanguage: English\n\n\nSource DVD9/Webrip\n\nNote: used the clean video off the Russian DVD and muxed the English studio audio from the webrip to it.. came out pretty nice.. Enjoy\n\nGeneral\n\nFormat                                   : Matroska\nFormat version                           : Version 2\nFile size                                : 1.40 GiB\nDuration                                 : 1h 33mn\nOverall bit rate                         : 2 138 Kbps\nEncoded date                             : UTC 2014-01-21 03:05:06\nWriting application                      : mkvmerge v6.5.0 ('Isn't she lovely') built on Oct 20 2013 12:50:05\nWriting library                          : libebml v1.3.0 + libmatroska v1.4.1\n\nVideo\nID                                       : 1\nFormat                                   : AVC\nFormat/Info                              : Advanced Video Codec\nFormat profile                           : &lt;a class=&quot;__cf_email__&quot; href=&quot;/cdn-cgi/l/email-protection&quot; data-cfemail=&quot;4d05242a250d017e637d&quot;&gt;[email&amp;#160;protected]&lt;/a&gt;&lt;script cf-hash='f9e31' type=&quot;text/javascript&quot;&gt;\n/* &lt;![CDATA[ */!function(){try{var t=&quot;currentScript&quot;in document?document.currentScript:function(){for(var t=document.getElementsByTagName(&quot;script&quot;),e=t.length;e--;)if(t[e].getAttribute(&quot;cf-hash&quot;))return t[e]}();if(t&amp;&amp;t.previousSibling){var e,r,n,i,c=t.previousSibling,a=c.getAttribute(&quot;data-cfemail&quot;);if(a){for(e=&quot;&quot;,r=parseInt(a.substr(0,2),16),n=2;a.length-n;n+=2)i=parseInt(a.substr(n,2),16)^r,e+=String.fromCharCode(i);e=document.createTextNode(e),c.parentNode.replaceChild(e,c)}}}catch(u){}}();/* ]]&gt; */&lt;/script&gt;\nFormat settings, CABAC                   : Yes\nFormat settings, ReFrames                : 4 frames\nCodec ID                                 : V_MPEG4/ISO/AVC\nDuration                                 : 1h 33mn\nBit rate                                 : 1 922 Kbps\nWidth                                    : 720 pixels\nHeight                                   : 304 pixels\nDisplay aspect ratio                     : 2.35:1\nFrame rate mode                          : Constant\nFrame rate                               : 25.000 fps\nColor space                              : YUV\nChroma subsampling                       : 4:2:0\nBit depth                                : 8 bits\nScan type                                : Progressive\nBits/(Pixel*Frame)                       : 0.351\nStream size                              : 1.22 GiB (88%)\nWriting library                          : x264 core 138 r2358 9e941d1\nDefault                                  : Yes\nForced                                   : No\n\nAudio\nID                                       : 2\nFormat                                   : AC-3\nFormat/Info                              : Audio Coding 3\nMode extension                           : CM (complete main)\nFormat settings, Endianness              : Big\nCodec ID                                 : A_AC3\nDuration                                 : 1h 33mn\nBit rate mode                            : Constant\nBit rate                                 : 224 Kbps\nChannel(s)                               : 2 channels\nChannel positions                        : Front: L R\nSampling rate                            : 44.1 KHz\nBit depth                                : 16 bits\nCompression mode                         : Lossy\nStream size                              : 150 MiB (10%)\nLanguage                                 : English\nDefault                                  : Yes\nForced                                   : No\n\n\n\n\nscreens\n &lt;a href=&quot;\nhttp://i.imgur.com/AC63siY.png&quot; rel=&quot;nofollow&quot; target=&quot;_NEW&quot;&gt;\nhttp://i.imgur.com/AC63siY.png&lt;/a&gt; &lt;a href=&quot;\nhttp://i.imgur.com/l1POLss.png&quot; rel=&quot;nofollow&quot; target=&quot;_NEW&quot;&gt;\nhttp://i.imgur.com/l1POLss.png&lt;/a&gt; &lt;a href=&quot;\nhttp://i.imgur.com/belIUyO.png&quot; rel=&quot;nofollow&quot; target=&quot;_NEW&quot;&gt;\nhttp://i.imgur.com/belIUyO.png&lt;/a&gt; &lt;a href=&quot;\nhttp://i.imgur.com/eQDqfG9.png&quot; rel=&quot;nofollow&quot; target=&quot;_NEW&quot;&gt;\nhttp://i.imgur.com/eQDqfG9.png&lt;/a&gt; &lt;a href=&quot;\nhttp://i.imgur.com/uAudi1g.png&quot; rel=&quot;nofollow&quot; target=&quot;_NEW&quot;&gt;\nhttp://i.imgur.com/uAudi1g.png&lt;/a&gt; &lt;a href=&quot;\nhttp://i.imgur.com/2qv5gRI.png&quot; rel=&quot;nofollow&quot; target=&quot;_NEW&quot;&gt;\nhttp://i.imgur.com/2qv5gRI.png&lt;/a&gt; &lt;a href=&quot;\nhttp://i.imgur.com/55KCSyB.png&quot; rel=&quot;nofollow&quot; target=&quot;_NEW&quot;&gt;\nhttp://i.imgur.com/55KCSyB.png&lt;/a&gt;","torrent":{"xt":"urn:btih:40f2659f5d4ab7fb5ad9f927aa5a614d7d603a25","amp;dn":"Filth+2013+R5+DVDRIP+x264+AC3+TiTAN","amp;tr":["udp%3A%2F%2Ftracker.openbittorrent.com%3A80","udp%3A%2F%2Fopen.demonii.com%3A1337","udp%3A%2F%2Ftracker.coppersurfer.tk%3A6969","udp%3A%2F%2Fexodus.desync.com%3A6969"],"infoHash":"40f2659f5d4ab7fb5ad9f927aa5a614d7d603a25","infoHashBuffer":{"type":"Buffer","data":[64,242,101,159,93,74,183,251,90,217,249,39,170,90,97,77,125,96,58,37]},"announce":[],"urlList":[]}}